<mxfile host="app.diagrams.net" modified="2023-06-12T08:36:22.945Z" agent="Mozilla/5.0 (Windows NT 10.0; Win64; x64) AppleWebKit/537.36 (KHTML, like Gecko) Chrome/114.0.0.0 Safari/537.36" version="21.3.8" etag="0041hzky_ydUDip0ZQRP" type="github">
  <diagram name="第 1 页" id="YuJhd-CmAwn_YrfzHxOg">
    <mxGraphModel>
      <root>
        <mxCell id="0" />
        <mxCell id="1" parent="0" />
      </root>
    </mxGraphModel>
  </diagram>
</mxfile>
